<svg width="24" height="24" viewBox="0 0 24 24" fill="none" xmlns="http://www.w3.org/2000/svg">
<path d="M12.0255 10.6963C12.0872 10.6296 12.3302 10.4543 12.6562 10.415C12.9929 10.3744 13.2348 10.4527 13.2954 10.5513C13.3711 10.6748 13.3835 10.8442 13.3752 11.0022C13.3555 11.3777 12.7776 11.9812 12.3809 12.3582C11.9233 12.7932 10.8616 12.4955 10.5993 12.4253C10.2802 12.34 10.0294 12.0531 9.74611 11.7078C9.44599 11.3421 9.11318 10.8686 8.87178 10.506C8.7322 10.2963 8.85528 9.98831 8.87754 9.72281C8.89831 9.47498 8.92317 9.23001 8.79391 8.94539C8.73915 8.82482 8.73318 8.71464 8.75854 8.63734C8.78566 8.55469 8.95 8.59351 9.06016 8.61054C9.16913 8.62739 9.24787 8.7421 9.33474 8.85034C9.4386 8.97975 9.5917 9.60033 9.82872 10.5167C9.99322 11.1527 10.1969 11.528 10.4163 11.8842C10.9603 12.7674 11.1578 13.0223 11.2908 13.601C11.4062 14.1032 11.3064 14.495 11.3007 14.5815C11.2976 14.6291 11.3286 14.4162 11.2843 14.2796C11.1691 13.9242 10.7817 13.6708 10.4723 13.4527C10.1089 13.1965 9.85728 12.8248 9.80387 12.6863C9.66041 12.3144 10.869 13.5199 11.2268 13.9503C11.4159 14.1779 11.6565 14.6036 11.8823 14.961C11.9365 15.0468 11.9775 15.1782 12.1073 15.1043C12.2371 15.0303 12.4433 14.7531 12.7571 14.2456C13.0708 13.7381 13.4859 13.0087 13.7378 12.5797C14.0557 12.0383 14.2142 11.8259 14.4103 11.5083C15.0548 10.4646 15.2854 9.69593 15.3819 9.32115C15.4057 9.23405 15.4362 9.14336 15.454 9.06343C15.4718 8.98349 15.476 8.91706 15.3911 8.78384" stroke="#D11F24" stroke-width="7" stroke-linecap="round"/>
<path d="M18.7995 5.77839C18.3616 5.22052 17.8117 4.77186 17.1893 4.46472C16.5669 4.15759 15.8875 3.99963 15.2002 4.00222C14.0241 3.96473 12.8791 4.40326 12.0007 5.2276C11.1224 4.40326 9.9774 3.96473 8.80133 4.00222C8.11397 3.99963 7.43462 4.15759 6.81223 4.46472C6.18983 4.77186 5.63987 5.22052 5.20198 5.77839C4.43972 6.75195 3.64227 8.51464 4.17097 11.3873C5.01482 15.9747 11.3425 19.7393 11.6096 19.8934C11.7287 19.9633 11.8628 20 11.9991 20C12.1355 20 12.2696 19.9633 12.3887 19.8934C12.6574 19.7359 18.9851 15.9713 19.8273 11.3873C20.3592 8.51464 19.5618 6.75195 18.7995 5.77839ZM18.2604 11.0673C17.6637 14.3105 13.3269 17.3272 12.0007 18.1846C10.1323 16.9971 6.28819 14.0158 5.74508 11.0673C5.33476 8.83888 5.89626 7.54444 6.44016 6.85049C6.72779 6.48507 7.08866 6.19121 7.49689 5.98998C7.90512 5.78875 8.35058 5.68514 8.80133 5.68659C9.28275 5.64857 9.76532 5.74255 10.202 5.95938C10.6386 6.1762 11.0145 6.50845 11.2929 6.92376C11.3615 7.05676 11.4628 7.16795 11.5861 7.24574C11.7095 7.32352 11.8504 7.36505 11.9941 7.36599C12.1379 7.36694 12.2793 7.32727 12.4036 7.25112C12.5278 7.17496 12.6304 7.06512 12.7006 6.93302C12.9785 6.51448 13.3551 6.17941 13.7934 5.96084C14.2317 5.74227 14.7166 5.64775 15.2002 5.68659C15.6518 5.68427 16.0984 5.78746 16.5077 5.98872C16.9169 6.18998 17.2787 6.4843 17.5669 6.85049C18.1092 7.54444 18.6707 8.83888 18.2604 11.0673Z" fill="#2A2A33"/>
</svg>
