<svg width="24" height="24" viewBox="0 0 24 24" fill="none" xmlns="http://www.w3.org/2000/svg">
<path d="M18.7995 5.77839C18.3616 5.22052 17.8117 4.77186 17.1893 4.46472C16.5669 4.15759 15.8875 3.99963 15.2002 4.00222C14.0241 3.96473 12.8791 4.40326 12.0007 5.2276C11.1224 4.40326 9.9774 3.96473 8.80133 4.00222C8.11397 3.99963 7.43462 4.15759 6.81223 4.46472C6.18983 4.77186 5.63987 5.22052 5.20198 5.77839C4.43972 6.75195 3.64227 8.51464 4.17097 11.3873C5.01482 15.9747 11.3425 19.7393 11.6096 19.8934C11.7287 19.9633 11.8628 20 11.9991 20C12.1355 20 12.2696 19.9633 12.3887 19.8934C12.6574 19.7359 18.9851 15.9713 19.8273 11.3873C20.3592 8.51464 19.5618 6.75195 18.7995 5.77839ZM18.2604 11.0673C17.6637 14.3105 13.3269 17.3272 12.0007 18.1846C10.1323 16.9971 6.28819 14.0158 5.74508 11.0673C5.33476 8.83888 5.89626 7.54444 6.44016 6.85049C6.72779 6.48507 7.08866 6.19121 7.49689 5.98998C7.90512 5.78875 8.35058 5.68514 8.80133 5.68659C9.28275 5.64857 9.76532 5.74255 10.202 5.95938C10.6386 6.1762 11.0145 6.50845 11.2929 6.92376C11.3615 7.05676 11.4628 7.16795 11.5861 7.24574C11.7095 7.32352 11.8504 7.36505 11.9941 7.36599C12.1379 7.36694 12.2793 7.32727 12.4036 7.25112C12.5278 7.17496 12.6304 7.06511 12.7006 6.93302C12.9785 6.51448 13.3551 6.17941 13.7934 5.96084C14.2317 5.74227 14.7166 5.64775 15.2002 5.68659C15.6518 5.68427 16.0984 5.78746 16.5077 5.98872C16.9169 6.18998 17.2787 6.4843 17.5669 6.85049C18.1092 7.54444 18.6707 8.83888 18.2604 11.0673Z" fill="#2A2A33"/>
</svg>
